A second release in Europe, Happy Nation U.S. Version, came on September 25, 1993, to coincide with the album's release in North America under the title The Sign. The Sign was released in North America on November 23, 1993 with four brand new tracks.
Several songs on the album, including "The Sign", "All That She Wants" and "Don't Turn Around", were No. 1 singles in the United States and all over Europe and North Africa.
The Sign is listed among the Top 100 Bestselling Albums of All Time by the Recording Industry Association of America (RIAA).

Tracklist:

01. Ace of Base - All That She Wants (3:35)
02. Ace of Base - Don't Turn Around (3:52)
03. Ace of Base - Young and Proud (3:57)
04. Ace of Base - The Sign (3:12)
05. Ace of Base - Living in Danger (3:44)
06. Ace of Base - Dancer in a Daydream (3:39)
07. Ace of Base - Wheel of Fortune (3:54)
08. Ace of Base - Waiting for Magic (Total remix 7') (3:53)
09. Ace of Base - Happy Nation (4:17)
10. Ace of Base - Voulez-vous Danser (3:20)
11. Ace of Base - My Mind (Mindless mix) (4:12)
12. Ace of Base - All That She Wants (Banghra version) (4:15)

EAC LOG:
Exact Audio Copy V1.0 beta 3 from 29. August 2011

EAC extraction logfile from 8. May 2013, 17:47

Ace of Base / The Sign

Used drive  : TSSTcorpCDDVDW TS-L633C   Adapter: 0  ID: 0

Read mode               : Secure
Utilize accurate stream : Yes
Defeat audio cache      : Yes
Make use of C2 pointers : No

Read offset correction                      : 6
Overread into Lead-In and Lead-Out          : No
Fill up missing offset samples with silence : Yes
Delete leading and trailing silent blocks   : No
Null samples used in CRC calculations       : Yes
Used interface                              : Native Win32 interface for Win NT & 2000

Used output format : Internal WAV Routines
Sample format      : 44.100 Hz; 16 Bit; Stereo


TOC of the extracted CD

     Track |   Start  |  Length  | Start sector | End sector 
    ---------------------------------------------------------
        1  |  0:00.00 |  3:34.57 |         0    |    16106   
        2  |  3:34.57 |  3:51.55 |     16107    |    33486   
        3  |  7:26.37 |  3:56.65 |     33487    |    51251   
        4  | 11:23.27 |  3:12.33 |     51252    |    65684   
        5  | 14:35.60 |  3:43.57 |     65685    |    82466   
        6  | 18:19.42 |  3:39.25 |     82467    |    98916   
        7  | 21:58.67 |  3:54.10 |     98917    |   116476   
        8  | 25:53.02 |  3:53.08 |    116477    |   133959   
        9  | 29:46.10 |  4:16.40 |    133960    |   153199   
       10  | 34:02.50 |  3:20.02 |    153200    |   168201   
       11  | 37:22.52 |  4:11.43 |    168202    |   187069   
       12  | 41:34.20 |  4:14.62 |    187070    |   206181   


Range status and errors

Selected range

     Filename C:Ace of Base - The SignAce of Base - The Sign.wav

     Peak level 89.1 %
     Extraction speed 3.5 X
     Range quality 100.0 %
     Test CRC 76A218F5
     Copy CRC 76A218F5
     Copy OK

No errors occurred

 
AccurateRip summary
 
Track  1  accurately ripped (confidence 26)  [52994ADE]  (AR v2)
Track  2  accurately ripped (confidence 26)  [75212FD9]  (AR v2)
Track  3  accurately ripped (confidence 25)  [387116BE]  (AR v2)
Track  4  accurately ripped (confidence 26)  [D5B0AD23]  (AR v2)
Track  5  accurately ripped (confidence 26)  [D4E402A7]  (AR v2)
Track  6  accurately ripped (confidence 25)  [79A6BD61]  (AR v2)
Track  7  accurately ripped (confidence 25)  [12770C3C]  (AR v2)
Track  8  accurately ripped (confidence 25)  [85A14402]  (AR v2)
Track  9  accurately ripped (confidence 24)  [81CD70C1]  (AR v2)
Track 10  accurately ripped (confidence 25)  [AC4807DC]  (AR v2)
Track 11  accurately ripped (confidence 25)  [035C3AC5]  (AR v2)
Track 12  accurately ripped (confidence 25)  [127866F0]  (AR v2)
 
All tracks accurately ripped

End of status report

---- CUETools DB Plugin V2.1.4

[CTDB TOCID: riGhJsasEaM2jvi3v7YB_k3WvvA-] found
Submit result: riGhJsasEaM2jvi3v7YB_k3WvvA- has been confirmed
Track | CTDB Status
  1   | (43/44) Accurately ripped
  2   | (44/44) Accurately ripped
  3   | (44/44) Accurately ripped
  4   | (43/44) Accurately ripped
  5   | (44/44) Accurately ripped
  6   | (43/44) Accurately ripped
  7   | (44/44) Accurately ripped
  8   | (43/44) Accurately ripped
  9   | (44/44) Accurately ripped
 10   | (44/44) Accurately ripped
 11   | (44/44) Accurately ripped
 12   | (43/44) Accurately ripped


==== Log checksum C6DE5C4BEF426D665F3896B7092211730342E758AC50B2685A97E1E1281CFEED ====